<svg xmlns="http://www.w3.org/2000/svg" xmlns:xlink="http://www.w3.org/1999/xlink" width="500" zoomAndPan="magnify" viewBox="0 0 375 374.999991" height="500" preserveAspectRatio="xMidYMid meet" version="1.0"><defs><clipPath id="b322240045"><path d="M 0 4.433594 L 375 4.433594 L 375 370 L 0 370 Z M 0 4.433594 " clip-rule="nonzero"/></clipPath></defs><g clip-path="url(#b322240045)"><path fill="#000000" d="M 187.5 4.433594 C 83.984375 4.433594 0.0429688 88.328125 0.0429688 191.824219 C 0.0429688 274.621094 53.753906 344.863281 128.238281 369.644531 C 137.605469 371.378906 141.046875 365.578125 141.046875 360.628906 C 141.046875 356.160156 140.871094 341.398438 140.792969 325.738281 C 88.640625 337.074219 77.636719 303.628906 77.636719 303.628906 C 69.109375 281.96875 56.820312 276.207031 56.820312 276.207031 C 39.8125 264.578125 58.105469 264.820312 58.105469 264.820312 C 76.925781 266.140625 86.839844 284.128906 86.839844 284.128906 C 103.558594 312.777344 130.695312 304.496094 141.390625 299.707031 C 143.074219 287.597656 147.933594 279.328125 153.292969 274.648438 C 111.65625 269.910156 67.886719 253.839844 67.886719 182.039062 C 67.886719 161.578125 75.207031 144.863281 87.199219 131.738281 C 85.253906 127.019531 78.835938 107.960938 89.015625 82.148438 C 89.015625 82.148438 104.757812 77.109375 140.582031 101.355469 C 155.535156 97.203125 171.570312 95.121094 187.5 95.050781 C 203.433594 95.121094 219.480469 97.203125 234.460938 101.355469 C 270.242188 77.113281 285.960938 82.148438 285.960938 82.148438 C 296.164062 107.957031 289.746094 127.019531 287.800781 131.738281 C 299.820312 144.863281 307.09375 161.578125 307.09375 182.039062 C 307.09375 254.011719 263.238281 269.859375 221.496094 274.5 C 228.21875 280.316406 234.210938 291.71875 234.210938 309.203125 C 234.210938 334.273438 233.992188 354.457031 233.992188 360.628906 C 233.992188 365.613281 237.367188 371.457031 246.871094 369.617188 C 321.3125 344.8125 374.957031 274.59375 374.957031 191.828125 C 374.957031 88.328125 291.027344 4.433594 187.5 4.433594 Z M 70.253906 271.378906 C 69.839844 272.308594 68.375 272.589844 67.039062 271.949219 C 65.679688 271.339844 64.914062 270.070312 65.355469 269.132812 C 65.757812 268.175781 67.226562 267.90625 68.585938 268.550781 C 69.945312 269.164062 70.722656 270.445312 70.253906 271.378906 Z M 79.472656 279.601562 C 78.578125 280.429688 76.832031 280.046875 75.644531 278.738281 C 74.417969 277.429688 74.1875 275.683594 75.09375 274.84375 C 76.019531 274.015625 77.710938 274.402344 78.941406 275.707031 C 80.167969 277.03125 80.40625 278.765625 79.472656 279.601562 Z M 85.800781 290.125 C 84.648438 290.921875 82.773438 290.175781 81.609375 288.507812 C 80.464844 286.84375 80.464844 284.84375 81.636719 284.042969 C 82.800781 283.242188 84.648438 283.964844 85.824219 285.617188 C 86.972656 287.3125 86.972656 289.308594 85.796875 290.128906 Z M 96.496094 302.3125 C 95.46875 303.445312 93.28125 303.140625 91.679688 301.597656 C 90.039062 300.085938 89.582031 297.941406 90.613281 296.808594 C 91.65625 295.671875 93.855469 295.992188 95.46875 297.527344 C 97.09375 299.035156 97.59375 301.191406 96.496094 302.3125 Z M 110.324219 306.425781 C 109.871094 307.894531 107.761719 308.5625 105.640625 307.941406 C 103.519531 307.296875 102.132812 305.578125 102.558594 304.09375 C 103 302.617188 105.117188 301.921875 107.257812 302.589844 C 109.375 303.226562 110.765625 304.933594 110.324219 306.429688 Z M 126.058594 308.171875 C 126.113281 309.71875 124.3125 311 122.082031 311.027344 C 119.84375 311.078125 118.027344 309.828125 118.003906 308.304688 C 118.003906 306.746094 119.761719 305.476562 122.003906 305.4375 C 124.234375 305.394531 126.058594 306.636719 126.058594 308.171875 Z M 141.515625 307.582031 C 141.785156 309.089844 140.234375 310.636719 138.019531 311.050781 C 135.847656 311.445312 133.832031 310.515625 133.554688 309.019531 C 133.285156 307.476562 134.863281 305.925781 137.035156 305.527344 C 139.25 305.140625 141.234375 306.046875 141.515625 307.582031 Z M 141.515625 307.582031 " fill-opacity="1" fill-rule="nonzero"/></g></svg>