<svg xmlns="http://www.w3.org/2000/svg" xmlns:xlink="http://www.w3.org/1999/xlink" width="500" zoomAndPan="magnify" viewBox="0 0 375 374.999991" height="500" preserveAspectRatio="xMidYMid meet" version="1.0"><path fill="#000000" d="M 218.839844 229.753906 C 209.511719 235.976562 198.671875 239.261719 187.5 239.261719 C 176.328125 239.261719 165.492188 235.976562 156.160156 229.753906 L 2.496094 127.308594 C 1.644531 126.742188 0.8125 126.148438 0 125.539062 L 0 293.40625 C 0 312.65625 15.617188 327.929688 34.519531 327.929688 L 340.476562 327.929688 C 359.726562 327.929688 375 312.308594 375 293.40625 L 375 125.539062 C 374.183594 126.148438 373.351562 126.742188 372.496094 127.3125 Z M 218.839844 229.753906 " fill-opacity="1" fill-rule="nonzero"/><path fill="#000000" d="M 14.683594 109.027344 L 168.347656 211.472656 C 174.167969 215.351562 180.832031 217.289062 187.5 217.289062 C 194.167969 217.289062 200.832031 215.351562 206.652344 211.472656 L 360.316406 109.027344 C 369.511719 102.898438 375 92.644531 375 81.578125 C 375 62.550781 359.519531 47.070312 340.492188 47.070312 L 34.507812 47.070312 C 15.480469 47.070312 0 62.550781 0 81.597656 C 0 92.644531 5.492188 102.898438 14.683594 109.027344 Z M 14.683594 109.027344 " fill-opacity="1" fill-rule="nonzero"/></svg>