<svg xmlns="http://www.w3.org/2000/svg" xmlns:xlink="http://www.w3.org/1999/xlink" width="500" zoomAndPan="magnify" viewBox="0 0 375 374.999991" height="500" preserveAspectRatio="xMidYMid meet" version="1.0"><path fill="#000000" d="M 364.792969 275.210938 L 312.460938 222.878906 C 293.769531 204.191406 261.996094 211.667969 254.523438 235.964844 C 248.914062 252.785156 230.222656 262.128906 213.402344 258.390625 C 176.023438 249.046875 125.558594 200.453125 116.214844 161.203125 C 110.609375 144.378906 121.820312 125.691406 138.644531 120.085938 C 162.941406 112.609375 170.417969 80.835938 151.726562 62.144531 L 99.394531 9.8125 C 84.441406 -3.269531 62.011719 -3.269531 48.929688 9.8125 L 13.417969 45.324219 C -22.09375 82.703125 17.15625 181.761719 105 269.605469 C 192.84375 357.449219 291.902344 398.566406 329.28125 361.1875 L 364.792969 325.675781 C 377.878906 310.722656 377.878906 288.296875 364.792969 275.210938 Z M 364.792969 275.210938 " fill-opacity="1" fill-rule="nonzero"/></svg>