<svg xmlns="http://www.w3.org/2000/svg" xmlns:xlink="http://www.w3.org/1999/xlink" width="500" zoomAndPan="magnify" viewBox="0 0 375 374.999991" height="500" preserveAspectRatio="xMidYMid meet" version="1.0"><path fill="#000000" d="M 81.816406 349.199219 L 89.148438 352.863281 C 119.691406 371.191406 153.902344 379.742188 188.113281 379.742188 C 295.628906 379.742188 383.59375 291.777344 383.59375 184.261719 C 383.59375 132.945312 362.824219 82.855469 326.171875 46.199219 C 289.519531 9.546875 240.644531 -11.222656 188.113281 -11.222656 C 80.597656 -11.222656 -7.371094 76.746094 -6.148438 185.484375 C -6.148438 222.132812 4.84375 257.566406 23.171875 288.109375 L 28.058594 295.441406 L 8.511719 367.527344 Z M 81.816406 349.199219 " fill-opacity="1" fill-rule="nonzero"/><path fill="#ffffff" d="M 346.941406 26.652344 C 305.402344 -16.109375 247.976562 -39.324219 189.332031 -39.324219 C 64.714844 -39.324219 -35.472656 62.082031 -34.25 185.480469 C -34.25 224.578125 -23.253906 262.453125 -4.925781 296.664062 L -36.695312 412.730469 L 81.816406 382.1875 C 114.804688 400.515625 151.457031 409.066406 188.113281 409.066406 C 311.511719 409.066406 411.695312 307.660156 411.695312 184.261719 C 411.695312 124.394531 388.480469 68.191406 346.941406 26.652344 Z M 189.332031 371.191406 C 156.34375 371.191406 123.355469 362.640625 95.257812 345.535156 L 87.925781 341.871094 L 17.0625 360.195312 L 35.390625 290.558594 L 30.503906 283.226562 C -23.253906 196.480469 2.402344 81.632812 90.371094 27.871094 C 178.335938 -25.882812 291.960938 -0.226562 345.71875 87.742188 C 399.476562 175.707031 373.820312 289.332031 285.855469 343.089844 C 257.75 361.417969 223.542969 371.191406 189.332031 371.191406 Z M 296.847656 235.578125 L 283.410156 229.46875 C 283.410156 229.46875 263.863281 220.914062 251.644531 214.804688 C 250.421875 214.804688 249.199219 213.582031 247.976562 213.582031 C 244.3125 213.582031 241.867188 214.804688 239.425781 216.027344 C 239.425781 216.027344 238.203125 217.25 221.097656 236.796875 C 219.875 239.242188 217.433594 240.464844 214.988281 240.464844 L 213.765625 240.464844 C 212.546875 240.464844 210.101562 239.242188 208.882812 238.019531 L 202.773438 235.578125 C 189.332031 229.46875 177.117188 222.136719 167.339844 212.363281 C 164.898438 209.917969 161.230469 207.476562 158.789062 205.03125 C 150.234375 196.480469 141.683594 186.707031 135.574219 175.710938 L 134.351562 173.265625 C 133.132812 172.042969 133.132812 170.824219 131.910156 168.378906 C 131.910156 165.9375 131.910156 163.492188 133.132812 162.269531 C 133.132812 162.269531 138.019531 156.160156 141.683594 152.496094 C 144.128906 150.050781 145.347656 146.386719 147.792969 143.945312 C 150.234375 140.277344 151.457031 135.390625 150.234375 131.726562 C 149.015625 125.617188 134.351562 92.628906 130.6875 85.300781 C 128.242188 81.632812 125.800781 80.414062 122.136719 79.191406 L 108.695312 79.191406 C 106.253906 79.191406 103.808594 80.414062 101.367188 80.414062 L 100.144531 81.632812 C 97.699219 82.855469 95.257812 85.300781 92.8125 86.519531 C 90.371094 88.964844 89.148438 91.40625 86.703125 93.851562 C 78.152344 104.847656 73.265625 118.285156 73.265625 131.726562 C 73.265625 141.5 75.707031 151.273438 79.375 159.828125 L 80.597656 163.492188 C 91.59375 186.707031 106.253906 207.476562 125.800781 225.800781 L 130.6875 230.6875 C 134.351562 234.355469 138.019531 236.796875 140.460938 240.460938 C 166.121094 262.457031 195.441406 278.339844 228.429688 286.890625 C 232.09375 288.113281 236.980469 288.113281 240.648438 289.335938 L 252.863281 289.335938 C 258.972656 289.335938 266.304688 286.890625 271.191406 284.449219 C 274.855469 282.003906 277.300781 282.003906 279.742188 279.5625 L 282.1875 277.117188 C 284.632812 274.671875 287.074219 273.453125 289.519531 271.007812 C 291.960938 268.566406 294.40625 266.121094 295.628906 263.675781 C 298.070312 258.789062 299.292969 252.679688 300.515625 246.574219 L 300.515625 238.019531 C 300.515625 238.019531 299.292969 236.796875 296.847656 235.578125 Z M 296.847656 235.578125 " fill-opacity="1" fill-rule="nonzero"/></svg>