<svg xmlns="http://www.w3.org/2000/svg" xmlns:xlink="http://www.w3.org/1999/xlink" width="500" zoomAndPan="magnify" viewBox="0 0 375 374.999991" height="500" preserveAspectRatio="xMidYMid meet" version="1.0"><path fill="#000000" d="M 367.925781 170.800781 L 204.199219 7.058594 C 203.640625 6.5 203.054688 5.972656 202.441406 5.46875 C 201.832031 4.96875 201.195312 4.5 200.539062 4.058594 C 199.882812 3.621094 199.203125 3.214844 198.507812 2.84375 C 197.808594 2.46875 197.097656 2.132812 196.367188 1.828125 C 195.632812 1.527344 194.890625 1.261719 194.132812 1.03125 C 193.378906 0.804688 192.613281 0.609375 191.835938 0.457031 C 191.0625 0.300781 190.28125 0.1875 189.492188 0.109375 C 188.707031 0.03125 187.917969 -0.0078125 187.125 -0.0078125 C 186.335938 -0.0078125 185.546875 0.03125 184.761719 0.109375 C 183.972656 0.1875 183.191406 0.300781 182.417969 0.457031 C 181.640625 0.609375 180.875 0.804688 180.117188 1.03125 C 179.363281 1.261719 178.617188 1.527344 177.886719 1.828125 C 177.15625 2.132812 176.441406 2.46875 175.746094 2.84375 C 175.046875 3.214844 174.371094 3.621094 173.714844 4.058594 C 173.054688 4.5 172.421875 4.96875 171.808594 5.46875 C 171.199219 5.972656 170.613281 6.5 170.054688 7.058594 L 136.054688 41.042969 L 179.179688 84.183594 C 180.445312 83.753906 181.734375 83.410156 183.046875 83.160156 C 184.359375 82.910156 185.683594 82.75 187.019531 82.683594 C 188.355469 82.617188 189.6875 82.644531 191.019531 82.765625 C 192.351562 82.886719 193.667969 83.097656 194.96875 83.402344 C 196.269531 83.707031 197.546875 84.101562 198.792969 84.585938 C 200.039062 85.066406 201.246094 85.632812 202.414062 86.285156 C 203.578125 86.9375 204.695312 87.667969 205.761719 88.476562 C 206.828125 89.285156 207.828125 90.164062 208.773438 91.109375 C 209.714844 92.058594 210.585938 93.066406 211.386719 94.136719 C 212.1875 95.207031 212.910156 96.328125 213.554688 97.5 C 214.199219 98.671875 214.757812 99.882812 215.234375 101.132812 C 215.707031 102.382812 216.09375 103.660156 216.390625 104.960938 C 216.6875 106.265625 216.890625 107.585938 217.003906 108.917969 C 217.113281 110.25 217.132812 111.582031 217.058594 112.917969 C 216.984375 114.25 216.816406 115.574219 216.558594 116.886719 C 216.296875 118.199219 215.949219 119.484375 215.507812 120.746094 L 257.066406 162.320312 C 258.09375 161.964844 259.136719 161.671875 260.195312 161.4375 C 261.253906 161.203125 262.324219 161.03125 263.402344 160.917969 C 264.484375 160.800781 265.566406 160.75 266.652344 160.761719 C 267.734375 160.769531 268.816406 160.839844 269.894531 160.972656 C 270.972656 161.101562 272.039062 161.296875 273.09375 161.546875 C 274.148438 161.800781 275.1875 162.113281 276.207031 162.484375 C 277.226562 162.855469 278.222656 163.28125 279.195312 163.765625 C 280.167969 164.246094 281.109375 164.785156 282.019531 165.375 C 282.929688 165.964844 283.804688 166.601562 284.644531 167.292969 C 285.484375 167.980469 286.28125 168.714844 287.035156 169.496094 C 287.789062 170.273438 288.5 171.09375 289.160156 171.953125 C 289.824219 172.816406 290.433594 173.710938 290.996094 174.636719 C 291.558594 175.566406 292.0625 176.523438 292.515625 177.511719 C 292.96875 178.5 293.363281 179.507812 293.703125 180.539062 C 294.039062 181.570312 294.316406 182.617188 294.539062 183.679688 C 294.757812 184.742188 294.914062 185.816406 295.011719 186.894531 C 295.109375 187.976562 295.148438 189.058594 295.121094 190.144531 C 295.097656 191.230469 295.011719 192.3125 294.863281 193.386719 C 294.714844 194.460938 294.507812 195.523438 294.242188 196.578125 C 293.972656 197.628906 293.644531 198.660156 293.261719 199.675781 C 292.875 200.691406 292.433594 201.679688 291.9375 202.644531 C 291.441406 203.609375 290.890625 204.542969 290.285156 205.445312 C 289.683594 206.347656 289.03125 207.214844 288.332031 208.042969 C 287.628906 208.871094 286.882812 209.65625 286.09375 210.402344 C 285.304688 211.144531 284.472656 211.84375 283.605469 212.492188 C 282.734375 213.140625 281.832031 213.742188 280.894531 214.289062 C 279.957031 214.835938 278.992188 215.328125 278 215.765625 C 277.003906 216.203125 275.992188 216.585938 274.953125 216.90625 C 273.917969 217.230469 272.867188 217.496094 271.800781 217.699219 C 270.734375 217.902344 269.660156 218.046875 268.578125 218.128906 C 267.496094 218.210938 266.414062 218.230469 265.328125 218.191406 C 264.242188 218.148438 263.164062 218.046875 262.09375 217.882812 C 261.019531 217.722656 259.957031 217.5 258.910156 217.214844 C 257.863281 216.933594 256.835938 216.589844 255.824219 216.191406 C 254.816406 215.792969 253.832031 215.335938 252.875 214.824219 C 251.917969 214.3125 250.992188 213.75 250.097656 213.132812 C 249.207031 212.519531 248.347656 211.851562 247.53125 211.140625 C 246.714844 210.425781 245.9375 209.667969 245.207031 208.867188 C 244.472656 208.066406 243.789062 207.226562 243.152344 206.347656 C 242.511719 205.46875 241.929688 204.558594 241.394531 203.613281 C 240.859375 202.667969 240.382812 201.695312 239.957031 200.699219 C 239.535156 199.699219 239.167969 198.679688 238.859375 197.636719 C 238.550781 196.597656 238.304688 195.542969 238.117188 194.472656 C 237.925781 193.402344 237.800781 192.328125 237.734375 191.246094 C 237.667969 190.160156 237.660156 189.078125 237.71875 187.992188 C 237.773438 186.910156 237.890625 185.832031 238.070312 184.761719 C 238.25 183.691406 238.488281 182.632812 238.785156 181.589844 C 239.082031 180.546875 239.4375 179.523438 239.851562 178.519531 L 201.09375 139.746094 L 201.09375 241.757812 C 202.066406 242.238281 203.011719 242.773438 203.921875 243.363281 C 204.835938 243.949219 205.710938 244.589844 206.554688 245.277344 C 207.394531 245.964844 208.191406 246.695312 208.949219 247.476562 C 209.707031 248.253906 210.417969 249.070312 211.082031 249.929688 C 211.746094 250.789062 212.363281 251.683594 212.925781 252.613281 C 213.488281 253.539062 213.996094 254.496094 214.453125 255.484375 C 214.90625 256.46875 215.304688 257.476562 215.644531 258.507812 C 215.984375 259.539062 216.265625 260.585938 216.488281 261.652344 C 216.710938 262.714844 216.871094 263.785156 216.972656 264.867188 C 217.074219 265.949219 217.109375 267.03125 217.089844 268.117188 C 217.066406 269.203125 216.980469 270.285156 216.835938 271.359375 C 216.691406 272.4375 216.488281 273.503906 216.21875 274.554688 C 215.953125 275.609375 215.628906 276.640625 215.246094 277.660156 C 214.863281 278.675781 214.425781 279.667969 213.929688 280.632812 C 213.433594 281.597656 212.886719 282.535156 212.285156 283.4375 C 211.683594 284.34375 211.03125 285.210938 210.332031 286.039062 C 209.632812 286.871094 208.886719 287.660156 208.097656 288.40625 C 207.308594 289.152344 206.480469 289.851562 205.613281 290.503906 C 204.742188 291.15625 203.839844 291.753906 202.90625 292.304688 C 201.96875 292.855469 201.003906 293.351562 200.011719 293.789062 C 199.019531 294.230469 198.003906 294.613281 196.96875 294.941406 C 195.933594 295.265625 194.882812 295.53125 193.816406 295.738281 C 192.75 295.945312 191.675781 296.089844 190.589844 296.171875 C 189.507812 296.257812 188.425781 296.28125 187.339844 296.242188 C 186.253906 296.203125 185.175781 296.105469 184.101562 295.945312 C 183.027344 295.785156 181.964844 295.5625 180.917969 295.28125 C 179.867188 295 178.835938 294.660156 177.828125 294.261719 C 176.816406 293.867188 175.832031 293.410156 174.871094 292.902344 C 173.914062 292.394531 172.984375 291.832031 172.089844 291.214844 C 171.195312 290.601562 170.335938 289.9375 169.515625 289.226562 C 168.699219 288.515625 167.917969 287.757812 167.183594 286.960938 C 166.449219 286.160156 165.765625 285.320312 165.125 284.441406 C 164.484375 283.566406 163.898438 282.652344 163.359375 281.710938 C 162.824219 280.765625 162.34375 279.792969 161.917969 278.792969 C 161.492188 277.796875 161.125 276.777344 160.8125 275.734375 C 160.503906 274.695312 160.253906 273.640625 160.0625 272.570312 C 159.871094 271.5 159.742188 270.425781 159.671875 269.339844 C 159.601562 268.257812 159.597656 267.171875 159.648438 266.089844 C 159.703125 265.003906 159.820312 263.925781 159.996094 262.855469 C 160.171875 261.78125 160.410156 260.722656 160.703125 259.679688 C 161 258.632812 161.355469 257.609375 161.769531 256.605469 C 162.179688 255.601562 162.648438 254.621094 163.171875 253.671875 C 163.695312 252.71875 164.269531 251.800781 164.898438 250.914062 C 165.523438 250.027344 166.199219 249.179688 166.925781 248.371094 C 167.648438 247.558594 168.414062 246.792969 169.226562 246.070312 C 170.035156 245.347656 170.882812 244.671875 171.773438 244.046875 C 172.660156 243.421875 173.578125 242.847656 174.53125 242.324219 C 175.480469 241.800781 176.460938 241.335938 177.464844 240.921875 L 177.464844 137.988281 C 176.589844 137.628906 175.734375 137.230469 174.898438 136.785156 C 174.0625 136.34375 173.253906 135.859375 172.464844 135.335938 C 171.675781 134.8125 170.917969 134.253906 170.183594 133.65625 C 169.453125 133.054688 168.75 132.421875 168.082031 131.753906 C 167.410156 131.089844 166.773438 130.390625 166.175781 129.660156 C 165.574219 128.929688 165.007812 128.171875 164.484375 127.382812 C 163.957031 126.597656 163.472656 125.789062 163.027344 124.953125 C 162.578125 124.121094 162.175781 123.265625 161.8125 122.394531 C 161.453125 121.519531 161.132812 120.628906 160.859375 119.722656 C 160.585938 118.820312 160.359375 117.902344 160.175781 116.976562 C 159.992188 116.046875 159.855469 115.113281 159.761719 114.171875 C 159.671875 113.230469 159.628906 112.285156 159.628906 111.339844 C 159.632812 110.394531 159.679688 109.449219 159.777344 108.511719 C 159.871094 107.570312 160.011719 106.636719 160.199219 105.707031 C 160.386719 104.78125 160.621094 103.867188 160.898438 102.960938 C 161.175781 102.058594 161.5 101.171875 161.863281 100.296875 L 119.324219 57.773438 L 7.074219 170.039062 C 6.515625 170.597656 5.984375 171.183594 5.484375 171.796875 C 4.980469 172.40625 4.511719 173.042969 4.070312 173.699219 C 3.632812 174.355469 3.226562 175.035156 2.851562 175.734375 C 2.480469 176.429688 2.140625 177.144531 1.839844 177.875 C 1.535156 178.605469 1.269531 179.351562 1.039062 180.105469 C 0.8125 180.863281 0.617188 181.632812 0.464844 182.40625 C 0.308594 183.183594 0.195312 183.964844 0.117188 184.75 C 0.0390625 185.539062 0 186.328125 0 187.117188 C 0 187.910156 0.0390625 188.699219 0.117188 189.488281 C 0.195312 190.273438 0.308594 191.054688 0.464844 191.832031 C 0.617188 192.605469 0.8125 193.375 1.039062 194.132812 C 1.269531 194.886719 1.535156 195.632812 1.839844 196.363281 C 2.140625 197.09375 2.480469 197.808594 2.851562 198.503906 C 3.226562 199.203125 3.632812 199.882812 4.070312 200.539062 C 4.511719 201.195312 4.980469 201.832031 5.484375 202.441406 C 5.984375 203.054688 6.515625 203.640625 7.074219 204.199219 L 170.800781 367.925781 C 171.359375 368.484375 171.945312 369.015625 172.558594 369.515625 C 173.167969 370.019531 173.804688 370.488281 174.460938 370.929688 C 175.117188 371.367188 175.796875 371.773438 176.496094 372.148438 C 177.191406 372.519531 177.90625 372.859375 178.636719 373.160156 C 179.367188 373.464844 180.113281 373.730469 180.867188 373.960938 C 181.625 374.1875 182.394531 374.382812 183.167969 374.535156 C 183.945312 374.691406 184.726562 374.804688 185.511719 374.882812 C 186.300781 374.960938 187.089844 375 187.878906 375 C 188.671875 375 189.460938 374.960938 190.25 374.882812 C 191.035156 374.804688 191.816406 374.691406 192.59375 374.535156 C 193.367188 374.382812 194.136719 374.1875 194.894531 373.960938 C 195.648438 373.730469 196.394531 373.464844 197.125 373.160156 C 197.855469 372.859375 198.570312 372.519531 199.265625 372.148438 C 199.964844 371.773438 200.644531 371.367188 201.300781 370.929688 C 201.957031 370.488281 202.59375 370.019531 203.203125 369.515625 C 203.816406 369.015625 204.402344 368.484375 204.960938 367.925781 L 367.925781 204.960938 C 368.484375 204.402344 369.015625 203.816406 369.515625 203.203125 C 370.019531 202.589844 370.488281 201.957031 370.929688 201.296875 C 371.367188 200.640625 371.773438 199.960938 372.148438 199.265625 C 372.519531 198.566406 372.859375 197.851562 373.160156 197.121094 C 373.464844 196.390625 373.730469 195.644531 373.960938 194.886719 C 374.191406 194.128906 374.382812 193.363281 374.535156 192.585938 C 374.691406 191.8125 374.808594 191.03125 374.882812 190.242188 C 374.960938 189.453125 375 188.664062 375 187.875 C 375 187.082031 374.960938 186.292969 374.882812 185.503906 C 374.808594 184.71875 374.691406 183.9375 374.535156 183.160156 C 374.382812 182.382812 374.191406 181.617188 373.960938 180.859375 C 373.730469 180.101562 373.464844 179.359375 373.160156 178.625 C 372.859375 177.894531 372.519531 177.179688 372.148438 176.484375 C 371.773438 175.785156 371.367188 175.105469 370.929688 174.449219 C 370.488281 173.789062 370.019531 173.15625 369.515625 172.542969 C 369.015625 171.929688 368.484375 171.347656 367.925781 170.785156 " fill-opacity="1" fill-rule="nonzero"/></svg>