<svg xmlns="http://www.w3.org/2000/svg" xmlns:xlink="http://www.w3.org/1999/xlink" width="500" zoomAndPan="magnify" viewBox="0 0 375 374.999991" height="500" preserveAspectRatio="xMidYMid meet" version="1.0"><path fill="#000000" d="M 110.464844 241.261719 C 110.464844 235.035156 106.140625 231.320312 98.519531 231.320312 C 95.40625 231.320312 93.296875 231.628906 92.191406 231.921875 L 92.191406 251.902344 C 93.5 252.199219 95.105469 252.296875 97.316406 252.296875 C 105.445312 252.296875 110.464844 248.191406 110.464844 241.261719 Z M 110.464844 241.261719 " fill-opacity="1" fill-rule="nonzero"/><path fill="#000000" d="M 157.664062 231.53125 C 154.25 231.53125 152.042969 231.824219 150.738281 232.132812 L 150.738281 276.382812 C 152.042969 276.691406 154.152344 276.691406 156.058594 276.691406 C 169.910156 276.789062 178.945312 269.164062 178.945312 253.007812 C 179.042969 238.957031 170.808594 231.53125 157.664062 231.53125 Z M 157.664062 231.53125 " fill-opacity="1" fill-rule="nonzero"/><path fill="#000000" d="M 245.359375 0 L 94.742188 0 C 72.738281 0 54.832031 17.921875 54.832031 39.910156 L 54.832031 187.5 L 50.933594 187.5 C 42.050781 187.5 34.847656 194.695312 34.847656 203.582031 L 34.847656 301.121094 C 34.847656 310.007812 42.050781 317.203125 50.933594 317.203125 L 54.832031 317.203125 L 54.832031 335.085938 C 54.832031 357.101562 72.738281 375 94.742188 375 L 300.25 375 C 322.238281 375 340.152344 357.101562 340.152344 335.085938 L 340.152344 94.460938 Z M 77.042969 221.183594 C 81.753906 220.386719 88.378906 219.789062 97.714844 219.789062 C 107.148438 219.789062 113.871094 221.589844 118.386719 225.207031 C 122.703125 228.613281 125.613281 234.238281 125.613281 240.859375 C 125.613281 247.480469 123.410156 253.105469 119.394531 256.917969 C 114.171875 261.832031 106.449219 264.039062 97.414062 264.039062 C 95.40625 264.039062 93.601562 263.941406 92.191406 263.746094 L 92.191406 287.929688 L 77.042969 287.929688 Z M 300.25 350.554688 L 94.742188 350.554688 C 86.222656 350.554688 79.285156 343.617188 79.285156 335.085938 L 79.285156 317.203125 L 270.859375 317.203125 C 279.742188 317.203125 286.945312 310.007812 286.945312 301.121094 L 286.945312 203.582031 C 286.945312 194.695312 279.742188 187.5 270.859375 187.5 L 79.285156 187.5 L 79.285156 39.910156 C 79.285156 31.40625 86.222656 24.464844 94.742188 24.464844 L 236.214844 24.320312 L 236.214844 76.613281 C 236.214844 91.886719 248.605469 104.289062 263.890625 104.289062 L 315.117188 104.144531 L 315.695312 335.085938 C 315.695312 343.617188 308.769531 350.554688 300.25 350.554688 Z M 135.382812 287.625 L 135.382812 221.183594 C 141.003906 220.289062 148.328125 219.789062 156.058594 219.789062 C 168.902344 219.789062 177.234375 222.09375 183.761719 227.007812 C 190.785156 232.230469 195.199219 240.554688 195.199219 252.503906 C 195.199219 265.449219 190.484375 274.386719 183.957031 279.902344 C 176.835938 285.820312 165.992188 288.628906 152.746094 288.628906 C 144.816406 288.628906 139.195312 288.125 135.382812 287.625 Z M 244.917969 248.289062 L 244.917969 260.730469 L 220.628906 260.730469 L 220.628906 287.929688 L 205.273438 287.929688 L 205.273438 220.289062 L 246.621094 220.289062 L 246.621094 232.828125 L 220.628906 232.828125 L 220.628906 248.289062 Z M 244.917969 248.289062 " fill-opacity="1" fill-rule="nonzero"/></svg>